<svg width="39" height="39" viewBox="0 0 39 39" fill="none" xmlns="http://www.w3.org/2000/svg">
<path fill-rule="evenodd" clip-rule="evenodd" d="M24.3177 14.1358L30.5236 7.9299L30.5205 7.92678C29.0958 6.50205 26.3968 7.40173 20.9987 9.20109L14.8195 11.2608C10.4627 12.7131 8.28434 13.4392 7.6653 14.504C7.07641 15.517 7.07641 16.7681 7.6653 17.7811C8.28434 18.8459 10.4627 19.572 14.8195 21.0243C15.3594 21.2042 15.9669 21.0757 16.3712 20.6752L22.978 14.1296C23.3496 13.7613 23.9495 13.7641 24.3177 14.1358Z" fill="white"/>
<path d="M27.1862 23.6267L29.246 17.4474C31.044 12.0533 31.9437 9.35425 30.5234 7.92871L24.3175 14.1346C24.6857 14.5063 24.6829 15.1062 24.3112 15.4744L17.8111 21.9143C17.3655 22.3558 17.2244 23.0315 17.4228 23.6266C18.875 27.9834 19.6012 30.1618 20.666 30.7808C21.679 31.3697 22.9301 31.3697 23.943 30.7808C25.0078 30.1618 25.734 27.9834 27.1862 23.6267Z" fill="#F8CC31"/>
<rect x="1.28494" y="1.28494" width="35.8765" height="35.8765" stroke="#F8CC31" stroke-width="0.111765"/>
<rect x="35.8765" y="0.111868" width="2.45882" height="2.45882" fill="white" stroke="#F8CC31" stroke-width="0.223529"/>
<rect x="35.8765" y="35.8765" width="2.45882" height="2.45882" fill="white" stroke="#F8CC31" stroke-width="0.223529"/>
<rect x="0.111868" y="35.8765" width="2.45882" height="2.45882" fill="white" stroke="#F8CC31" stroke-width="0.223529"/>
<rect x="0.111868" y="0.111868" width="2.45882" height="2.45882" fill="white" stroke="#F8CC31" stroke-width="0.223529"/>
</svg>
