<svg width="39" height="39" viewBox="0 0 39 39" fill="none" xmlns="http://www.w3.org/2000/svg">
<path d="M30.2235 11.3755C30.2235 13.6685 28.2538 15.5273 25.8241 15.5273C24.3958 15.5273 23.1265 14.885 22.3227 13.8898L15.3577 17.5872C14.8987 17.8308 14.3173 17.6772 14.0591 17.2441C13.801 16.8109 13.9638 16.2622 14.4227 16.0186L21.5223 12.2498C21.4583 11.9679 21.4247 11.6754 21.4247 11.3755C21.4247 9.08247 23.3942 7.22363 25.8241 7.22363C28.2538 7.22363 30.2235 9.08247 30.2235 11.3755Z" fill="white"/>
<path d="M22.3714 24.4982L15.3577 20.7749C14.8987 20.5312 14.3173 20.6849 14.0591 21.1181C13.801 21.5512 13.9638 22.0999 14.4227 22.3435L21.5402 26.1219C21.4646 26.4268 21.4247 26.7448 21.4247 27.0716C21.4247 29.3646 23.3942 31.2234 25.8241 31.2234C28.2538 31.2234 30.2235 29.3646 30.2235 27.0716C30.2235 24.7787 28.2538 22.9198 25.8241 22.9198C24.4243 22.9198 23.1772 23.5367 22.3714 24.4982Z" fill="white"/>
<path d="M17.0225 19.1225C17.0225 21.4156 15.0528 23.2744 12.6231 23.2744C10.1933 23.2744 8.22363 21.4156 8.22363 19.1225C8.22363 16.8295 10.1933 14.9707 12.6231 14.9707C15.0528 14.9707 17.0225 16.8295 17.0225 19.1225Z" fill="#F8CC31"/>
<rect x="1.28494" y="1.28494" width="35.8765" height="35.8765" stroke="#F8CC31" stroke-width="0.111765"/>
<rect x="35.8765" y="0.111868" width="2.45882" height="2.45882" fill="white" stroke="#F8CC31" stroke-width="0.223529"/>
<rect x="35.8765" y="35.8765" width="2.45882" height="2.45882" fill="white" stroke="#F8CC31" stroke-width="0.223529"/>
<rect x="0.111868" y="35.8765" width="2.45882" height="2.45882" fill="white" stroke="#F8CC31" stroke-width="0.223529"/>
<rect x="0.111868" y="0.111868" width="2.45882" height="2.45882" fill="white" stroke="#F8CC31" stroke-width="0.223529"/>
</svg>
