<svg width="48" height="48" viewBox="0 0 48 48" fill="none" xmlns="http://www.w3.org/2000/svg">
<g opacity="0.84">
<rect x="4" y="37" width="7" height="7" fill="white"/>
<rect opacity="0.6" x="11" y="37" width="7" height="7" fill="white"/>
<rect opacity="0.32" x="18" y="37" width="7" height="7" fill="white"/>
<rect opacity="0.07" x="25" y="37" width="7" height="7" fill="white"/>
<rect opacity="0.6" x="4" y="30" width="7" height="7" fill="white"/>
<rect opacity="0.32" x="11" y="30" width="7" height="7" fill="white"/>
<rect opacity="0.07" x="11" y="23" width="7" height="7" fill="white"/>
<rect opacity="0.07" x="18" y="30" width="7" height="7" fill="white"/>
<rect opacity="0.32" x="4" y="23" width="7" height="7" fill="white"/>
<rect opacity="0.07" x="4" y="16" width="7" height="7" fill="white"/>
<rect x="37" y="4" width="7" height="7" fill="white"/>
<rect opacity="0.6" x="37" y="11" width="7" height="7" fill="white"/>
<rect opacity="0.32" x="30" y="11" width="7" height="7" fill="white"/>
<rect opacity="0.07" x="23" y="11" width="7" height="7" fill="white"/>
<rect opacity="0.32" x="37" y="18" width="7" height="7" fill="white"/>
<rect opacity="0.07" x="30" y="18" width="7" height="7" fill="white"/>
<rect opacity="0.07" x="37" y="25" width="7" height="7" fill="white"/>
<rect opacity="0.6" x="30" y="4" width="7" height="7" fill="white"/>
<rect opacity="0.32" x="23" y="4" width="7" height="7" fill="white"/>
<rect opacity="0.07" x="16" y="4" width="7" height="7" fill="white"/>
</g>
</svg>
