<svg width="39" height="39" viewBox="0 0 39 39" fill="none" xmlns="http://www.w3.org/2000/svg">
<path d="M19.2257 21.9358C20.8296 21.9358 22.1407 20.7141 22.1407 19.2195C22.1407 17.714 20.8296 16.4922 19.2257 16.4922C19.0852 16.4922 18.9447 16.5042 18.8159 16.5249C18.7691 17.7261 17.7154 18.686 16.4159 18.686H16.3574C16.3223 18.8605 16.2988 19.034 16.2988 19.2195C16.2988 20.7141 17.61 21.9358 19.2257 21.9358Z" fill="#F8CC31"/>
<path fill-rule="evenodd" clip-rule="evenodd" d="M31.1534 18.8964C29.9008 16.18 28.1563 14.008 26.1076 12.5255C24.0588 11.0309 21.7056 10.2236 19.2236 10.2236H19.2119C14.2597 10.2236 9.79924 13.4625 7.29388 18.8964C7.20022 19.1026 7.20022 19.3437 7.29388 19.54C9.79924 24.9727 14.2597 28.2236 19.2119 28.2236H19.2236C24.1876 28.2236 28.6481 24.9727 31.1534 19.54C31.247 19.3437 31.247 19.1026 31.1534 18.8964ZM19.2236 23.5764C16.6363 23.5764 14.5407 21.6236 14.5407 19.2236C14.5407 16.8127 16.6363 14.86 19.2236 14.86C21.7992 14.86 23.8949 16.8127 23.8949 19.2236C23.8949 21.6236 21.7992 23.5764 19.2236 23.5764Z" fill="white"/>
<rect x="1.28494" y="1.28494" width="35.8765" height="35.8765" stroke="#F8CC31" stroke-width="0.111765"/>
<rect x="35.8765" y="0.111868" width="2.45882" height="2.45882" fill="white" stroke="#F8CC31" stroke-width="0.223529"/>
<rect x="35.8765" y="35.8765" width="2.45882" height="2.45882" fill="white" stroke="#F8CC31" stroke-width="0.223529"/>
<rect x="0.111868" y="35.8765" width="2.45882" height="2.45882" fill="white" stroke="#F8CC31" stroke-width="0.223529"/>
<rect x="0.111868" y="0.111868" width="2.45882" height="2.45882" fill="white" stroke="#F8CC31" stroke-width="0.223529"/>
</svg>
